<svg width="607" height="319" viewBox="0 0 607 319" fill="none" xmlns="http://www.w3.org/2000/svg">
<path d="M0 0H606.055V318.274H0V0Z" fill="#3F80FD"/>
<path d="M454.181 148.193H461.834L451.741 175.921C448.858 183.906 444.144 187.4 437.101 187.012V180.357C441.038 180.413 443.035 178.749 444.366 175.033L432.998 148.193H440.817L448.026 166.826L454.181 148.193Z" fill="white"/>
<path d="M420.109 147.417C425.988 147.417 430.59 151.52 430.59 158.896V175.92H423.437V159.783C423.437 156.012 421.163 154.071 417.947 154.071C414.453 154.071 411.847 156.123 411.847 160.947V175.92H404.693V148.193H411.847V151.298C413.51 148.803 416.394 147.417 420.109 147.417Z" fill="white"/>
<path d="M391.053 148.193H398.206V175.92H391.053V172.648C389.056 175.144 386.062 176.697 382.014 176.697C374.638 176.697 368.538 170.319 368.538 162.057C368.538 153.794 374.638 147.417 382.014 147.417C386.062 147.417 389.056 148.969 391.053 151.465V148.193ZM383.345 169.876C387.781 169.876 391.053 166.715 391.053 162.057C391.053 157.398 387.781 154.237 383.345 154.237C378.964 154.237 375.692 157.398 375.692 162.057C375.692 166.715 378.964 169.876 383.345 169.876Z" fill="white"/>
<path d="M351.403 147.417C358.834 147.417 364.934 153.794 364.934 162.057C364.934 170.319 358.834 176.697 351.403 176.697C347.355 176.697 344.416 175.199 342.42 172.648V187.011H335.266V148.193H342.42V151.465C344.416 148.914 347.355 147.417 351.403 147.417ZM350.073 169.876C354.509 169.876 357.781 166.715 357.781 162.057C357.781 157.398 354.509 154.237 350.073 154.237C345.692 154.237 342.42 157.398 342.42 162.057C342.42 166.715 345.692 169.876 350.073 169.876Z" fill="white"/>
<path d="M318.709 147.417C325.031 147.417 329.19 151.908 329.19 158.84V175.92H322.037V159.339C322.037 156.067 320.373 154.071 317.379 154.071C314.218 154.071 312.221 156.178 312.221 160.337V175.92H305.068V159.339C305.068 156.067 303.404 154.071 300.409 154.071C297.359 154.071 295.197 156.178 295.197 160.337V175.92H288.043V148.193H295.197V151.132C296.749 148.803 299.356 147.417 302.905 147.417C306.343 147.417 308.894 148.858 310.447 151.409C312.166 148.914 314.939 147.417 318.709 147.417Z" fill="white"/>
<path d="M268.315 176.697C260.163 176.697 253.675 170.319 253.675 162.057C253.675 153.794 260.163 147.417 268.315 147.417C276.467 147.417 283.01 153.794 283.01 162.057C283.01 170.319 276.467 176.697 268.315 176.697ZM268.315 169.709C272.585 169.709 275.857 166.548 275.857 162.057C275.857 157.565 272.585 154.404 268.315 154.404C264.1 154.404 260.828 157.565 260.828 162.057C260.828 166.548 264.1 169.709 268.315 169.709Z" fill="white"/>
<path d="M239.234 176.697C230.805 176.697 224.594 170.319 224.594 162.057C224.594 153.794 230.805 147.417 239.234 147.417C244.668 147.417 249.382 150.3 251.656 154.57L245.5 158.175C244.391 155.901 242.007 154.459 239.178 154.459C234.908 154.459 231.747 157.62 231.747 162.057C231.747 166.437 234.908 169.598 239.178 169.598C242.062 169.598 244.447 168.212 245.556 165.938L251.767 169.488C249.382 173.813 244.668 176.697 239.234 176.697Z" fill="white"/>
<path fill-rule="evenodd" clip-rule="evenodd" d="M163.544 132.354C161.151 132.354 159.212 134.294 159.212 136.687V150.219H145.43C143.038 150.219 141.098 152.158 141.098 154.551V186.493C141.098 188.886 143.038 190.825 145.43 190.825H176.993C179.386 190.825 181.325 188.886 181.325 186.493V172.961H195.106C197.499 172.961 199.439 171.022 199.439 168.629V136.687C199.439 134.294 197.499 132.354 195.106 132.354H163.544ZM181.325 172.961V154.551C181.325 152.158 179.386 150.219 176.993 150.219H159.212V168.629C159.212 171.022 161.151 172.961 163.544 172.961H181.325Z" fill="white"/>
</svg>
