<svg width="607" height="319" viewBox="0 0 607 319" fill="none" xmlns="http://www.w3.org/2000/svg">
<path d="M0 0H606.055V318.274H0V0Z" fill="#009EFF"/>
<path d="M436.789 160.054H448.347C448.242 157.48 446.561 154.958 442.568 154.958C438.943 154.958 436.947 157.69 436.789 160.054ZM449.03 166.779L454.862 168.512C453.548 172.978 449.451 176.708 443.094 176.708C436.001 176.708 429.75 171.612 429.75 162.891C429.75 154.643 435.844 149.284 442.463 149.284C450.449 149.284 455.23 154.38 455.23 162.681C455.23 163.679 455.124 164.73 455.124 164.835H436.632C436.789 168.25 439.679 170.719 443.146 170.719C446.403 170.719 448.19 169.09 449.03 166.779Z" fill="white"/>
<path d="M406.424 168.723L412.413 167.409C412.571 169.458 414.095 171.349 417.142 171.349C419.453 171.349 420.557 170.141 420.557 168.775C420.557 167.619 419.768 166.674 417.772 166.253L414.357 165.465C409.366 164.362 407.107 161.367 407.107 157.742C407.107 153.119 411.205 149.284 416.774 149.284C424.129 149.284 426.598 153.96 426.913 156.744L421.082 158.058C420.872 156.534 419.768 154.59 416.826 154.59C414.988 154.59 413.517 155.694 413.517 157.165C413.517 158.425 414.462 159.214 415.881 159.476L419.558 160.264C424.654 161.315 427.229 164.415 427.229 168.197C427.229 172.4 423.971 176.708 417.194 176.708C409.419 176.708 406.74 171.665 406.424 168.723Z" fill="white"/>
<path d="M402.2 175.92H395.213V150.072H402.2V175.92ZM394.373 141.613C394.373 139.197 396.316 137.253 398.681 137.253C401.097 137.253 402.988 139.197 402.988 141.613C402.988 143.925 401.097 145.869 398.681 145.869C396.316 145.869 394.373 143.925 394.373 141.613Z" fill="white"/>
<path d="M391.35 149.967V157.007C390.562 156.849 389.879 156.797 389.248 156.797C385.676 156.797 382.576 158.53 382.576 164.099V175.92H375.589V150.072H382.366V153.907C383.942 150.492 387.515 149.862 389.721 149.862C390.299 149.862 390.824 149.914 391.35 149.967Z" fill="white"/>
<path d="M351.458 185.902H344.471V150.072H351.248V153.224C352.404 151.228 355.293 149.494 359.181 149.494C366.746 149.494 371.107 155.273 371.107 162.943C371.107 170.771 366.221 176.55 358.918 176.55C355.346 176.55 352.719 175.132 351.458 173.398V185.902ZM364.224 162.996C364.224 158.425 361.387 155.746 357.815 155.746C354.242 155.746 351.353 158.425 351.353 162.996C351.353 167.567 354.242 170.298 357.815 170.298C361.387 170.298 364.224 167.619 364.224 162.996Z" fill="white"/>
<path d="M340.607 149.967V157.007C339.819 156.849 339.136 156.797 338.506 156.797C334.933 156.797 331.833 158.53 331.833 164.099V175.92H324.846V150.072H331.623V153.907C333.199 150.492 336.772 149.862 338.978 149.862C339.556 149.862 340.082 149.914 340.607 149.967Z" fill="white"/>
<path d="M301.954 160.054H313.512C313.407 157.48 311.726 154.958 307.733 154.958C304.108 154.958 302.112 157.69 301.954 160.054ZM314.195 166.779L320.026 168.512C318.713 172.978 314.615 176.708 308.258 176.708C301.166 176.708 294.914 171.612 294.914 162.891C294.914 154.643 301.008 149.284 307.628 149.284C315.613 149.284 320.394 154.38 320.394 162.681C320.394 163.679 320.289 164.73 320.289 164.835H301.796C301.954 168.25 304.843 170.719 308.311 170.719C311.568 170.719 313.354 169.09 314.195 166.779Z" fill="white"/>
<path d="M287.029 142.35V150.072H292.23V156.272H287.029V167.094C287.029 169.353 288.08 170.089 290.076 170.089C290.917 170.089 291.862 169.984 292.23 169.879V175.658C291.6 175.92 290.339 176.288 288.29 176.288C283.246 176.288 280.094 173.293 280.094 168.302V156.272H275.418V150.072H276.732C279.464 150.072 280.725 148.286 280.725 145.975V142.35H287.029Z" fill="white"/>
<path d="M255.771 161.052V175.919H248.783V150.072H255.56V153.276C257.136 150.597 260.236 149.389 263.02 149.389C269.43 149.389 272.372 153.959 272.372 159.633V175.919H265.385V160.842C265.385 157.952 263.966 155.693 260.604 155.693C257.557 155.693 255.771 158.057 255.771 161.052Z" fill="white"/>
<path d="M225.892 160.054H237.45C237.345 157.48 235.664 154.958 231.671 154.958C228.046 154.958 226.049 157.69 225.892 160.054ZM238.133 166.779L243.964 168.512C242.651 172.978 238.553 176.708 232.196 176.708C225.104 176.708 218.852 171.612 218.852 162.891C218.852 154.643 224.946 149.284 231.566 149.284C239.551 149.284 244.332 154.38 244.332 162.681C244.332 163.679 244.227 164.73 244.227 164.835H225.734C225.892 168.25 228.781 170.719 232.249 170.719C235.506 170.719 237.292 169.09 238.133 166.779Z" fill="white"/>
<g clip-path="url(#clip0_2559_48478)">
<path fill-rule="evenodd" clip-rule="evenodd" d="M141.396 170.673C141.396 172.11 142.851 173.09 144.183 172.549L161.973 165.317C162.736 165.007 163.235 164.265 163.235 163.441L163.235 155.275C163.235 154.451 163.734 153.71 164.497 153.399L182.351 146.142C183.114 145.832 183.613 145.09 183.613 144.266L183.613 134.692C183.613 133.574 182.706 132.667 181.588 132.667L163.798 132.667C162.68 132.667 161.774 133.574 161.774 134.692L161.774 149.818C161.774 150.936 160.867 151.843 159.749 151.843L143.42 151.843C142.302 151.843 141.396 152.749 141.396 153.867L141.396 170.673Z" fill="white"/>
<path fill-rule="evenodd" clip-rule="evenodd" d="M199.06 146.522C199.06 145.085 197.604 144.105 196.273 144.646L178.483 151.878C177.72 152.188 177.221 152.93 177.221 153.753V161.92C177.221 162.744 176.722 163.485 175.959 163.795L158.105 171.053C157.342 171.363 156.843 172.105 156.843 172.929V182.503C156.843 183.621 157.749 184.527 158.867 184.527H176.657C177.775 184.527 178.682 183.621 178.682 182.503V167.377C178.682 166.259 179.588 165.352 180.706 165.352H197.035C198.153 165.352 199.06 164.446 199.06 163.328V146.522Z" fill="white"/>
</g>
<defs>
<clipPath id="clip0_2559_48478">
<rect width="59.8328" height="59.8328" fill="white" transform="translate(140.312 130.304)"/>
</clipPath>
</defs>
</svg>
