<svg width="100" height="100" viewBox="0 0 100 100" fill="none" xmlns="http://www.w3.org/2000/svg">
<g clip-path="url(#clip0)">
<path d="M100 0H0V100H100V0Z" fill="white"/>
<path d="M100 0H0V100H100V0Z" fill="#FFEFEF"/>
<g filter="url(#filter0_d)">
<path d="M75.4968 34.3123H25.3545V66.7524H75.4968V34.3123Z" fill="white" fill-opacity="0.01"/>
<path fill-rule="evenodd" clip-rule="evenodd" d="M66.1495 20.5717C70.5343 20.5717 74.7524 22.3047 77.8554 25.4142C80.9617 28.5173 82.698 32.7027 82.698 37.0842V62.9157C82.698 72.0385 75.2755 79.4283 66.1495 79.4283H33.847C24.721 79.4283 17.3018 72.0385 17.3018 62.9157V37.0842C17.3018 27.9614 24.6883 20.5717 33.847 20.5717H66.1495ZM71.3516 41.9562L71.6132 41.6946C72.3947 40.7464 72.3947 39.3731 71.5772 38.4248C71.1227 37.9376 70.4982 37.6401 69.8475 37.5747C69.1608 37.5387 68.5068 37.7708 68.0131 38.2286L53.2695 49.9999C51.373 51.5727 48.6558 51.5727 46.7299 49.9999L32.0157 38.2286C30.9988 37.4766 29.5928 37.5747 28.7459 38.4575C27.8631 39.3404 27.765 40.7464 28.5138 41.7273L28.9421 42.1524L43.8198 53.7602C45.6509 55.199 47.8711 55.9837 50.1959 55.9837C52.5142 55.9837 54.7736 55.199 56.6015 53.7602L71.3516 41.9562Z" fill="#FF3951"/>
</g>
<path d="M75.4968 34.3123H25.3545V66.7524H75.4968V34.3123Z" fill="white"/>
<path fill-rule="evenodd" clip-rule="evenodd" d="M66.1495 20.5717C70.5343 20.5717 74.7524 22.3047 77.8554 25.4142C80.9617 28.5173 82.698 32.7027 82.698 37.0842V62.9157C82.698 72.0385 75.2755 79.4283 66.1495 79.4283H33.847C24.721 79.4283 17.3018 72.0385 17.3018 62.9157V37.0842C17.3018 27.9614 24.6883 20.5717 33.847 20.5717H66.1495ZM71.3516 41.9562L71.6132 41.6946C72.3947 40.7464 72.3947 39.3731 71.5772 38.4248C71.1227 37.9376 70.4982 37.6401 69.8475 37.5747C69.1608 37.5387 68.5068 37.7708 68.0131 38.2286L53.2695 49.9999C51.373 51.5727 48.6558 51.5727 46.7299 49.9999L32.0157 38.2286C30.9988 37.4766 29.5928 37.5747 28.7459 38.4575C27.8631 39.3404 27.765 40.7464 28.5138 41.7273L28.9421 42.1524L43.8198 53.7602C45.6509 55.199 47.8711 55.9837 50.1959 55.9837C52.5142 55.9837 54.7736 55.199 56.6015 53.7602L71.3516 41.9562Z" fill="#FF3951"/>
</g>
<defs>
<filter id="filter0_d" x="-9.5022" y="0.46869" width="119.004" height="112.465" filterUnits="userSpaceOnUse" color-interpolation-filters="sRGB">
<feFlood flood-opacity="0" result="BackgroundImageFix"/>
<feColorMatrix in="SourceAlpha" type="matrix" values="0 0 0 0 0 0 0 0 0 0 0 0 0 0 0 0 0 0 127 0"/>
<feOffset dy="6.70099"/>
<feGaussianBlur stdDeviation="13.402"/>
<feColorMatrix type="matrix" values="0 0 0 0 1 0 0 0 0 0.223529 0 0 0 0 0.317647 0 0 0 0.5 0"/>
<feBlend mode="normal" in2="BackgroundImageFix" result="effect1_dropShadow"/>
<feBlend mode="normal" in="SourceGraphic" in2="effect1_dropShadow" result="shape"/>
</filter>
<clipPath id="clip0">
<rect width="100" height="100" fill="white"/>
</clipPath>
</defs>
</svg>
