<svg width="730" height="451" viewBox="0 0 730 451" fill="none" xmlns="http://www.w3.org/2000/svg">
<g clip-path="url(#clip0)">
<path d="M730 0.82019H0V450.82H730V0.82019Z" fill="white"/>
<path d="M730 0.82019H0V450.82H730V0.82019Z" fill="#FF3951"/>
<g filter="url(#filter0_d)">
<path d="M363.295 46.5239H227.77C206.224 46.5239 188.758 63.9902 188.758 85.536V366.8C188.758 388.346 206.224 405.812 227.77 405.812H363.295C384.841 405.812 402.307 388.346 402.307 366.8V85.536C402.307 63.9902 384.841 46.5239 363.295 46.5239Z" fill="white" fill-opacity="0.01"/>
</g>
<path d="M363.295 45.8281H227.77C206.224 45.8281 188.758 63.2944 188.758 84.8402V366.104C188.758 387.65 206.224 405.117 227.77 405.117H363.295C384.841 405.117 402.307 387.65 402.307 366.104V84.8402C402.307 63.2944 384.841 45.8281 363.295 45.8281Z" fill="white"/>
<g filter="url(#filter1_d)">
<path d="M365.323 338.782H225.895C215.355 338.782 206.81 347.327 206.81 357.867V357.867C206.81 368.407 215.355 376.952 225.895 376.952H365.323C375.863 376.952 384.408 368.407 384.408 357.867V357.867C384.408 347.327 375.863 338.782 365.323 338.782Z" fill="#FF3951" fill-opacity="0.01"/>
</g>
<path d="M365.323 338.426H225.895C215.355 338.426 206.81 346.97 206.81 357.511V357.511C206.81 368.051 215.355 376.596 225.895 376.596H365.323C375.863 376.596 384.408 368.051 384.408 357.511V357.511C384.408 346.97 375.863 338.426 365.323 338.426Z" fill="#FF3951"/>
<g filter="url(#filter2_d)">
<path d="M217.122 266.586C222.508 266.586 226.875 262.219 226.875 256.833C226.875 251.447 222.508 247.08 217.122 247.08C211.736 247.08 207.369 251.447 207.369 256.833C207.369 262.219 211.736 266.586 217.122 266.586Z" fill="#FF3951" fill-opacity="0.01"/>
</g>
<path d="M217.122 265.818C222.508 265.818 226.875 261.451 226.875 256.065C226.875 250.678 222.508 246.312 217.122 246.312C211.736 246.312 207.369 250.678 207.369 256.065C207.369 261.451 211.736 265.818 217.122 265.818Z" fill="#FF3951"/>
<g filter="url(#filter3_d)">
<path d="M217.122 295.095C222.508 295.095 226.875 290.729 226.875 285.342C226.875 279.956 222.508 275.589 217.122 275.589C211.736 275.589 207.369 279.956 207.369 285.342C207.369 290.729 211.736 295.095 217.122 295.095Z" fill="#FF8139" fill-opacity="0.01"/>
</g>
<path d="M217.122 295.619C222.508 295.619 226.875 291.253 226.875 285.866C226.875 280.48 222.508 276.113 217.122 276.113C211.736 276.113 207.369 280.48 207.369 285.866C207.369 291.253 211.736 295.619 217.122 295.619Z" fill="#FF8139"/>
<g filter="url(#filter4_d)">
<path d="M217.122 323.605C222.508 323.605 226.875 319.238 226.875 313.852C226.875 308.465 222.508 304.099 217.122 304.099C211.736 304.099 207.369 308.465 207.369 313.852C207.369 319.238 211.736 323.605 217.122 323.605Z" fill="#FFC226" fill-opacity="0.01"/>
</g>
<path d="M217.122 324.066C222.508 324.066 226.875 319.7 226.875 314.313C226.875 308.927 222.508 304.56 217.122 304.56C211.736 304.56 207.369 308.927 207.369 314.313C207.369 319.7 211.736 324.066 217.122 324.066Z" fill="#FFC226"/>
<path d="M360.834 253.082H237.503C235.432 253.082 233.752 254.762 233.752 256.833C233.752 258.905 235.432 260.584 237.503 260.584H360.834C362.906 260.584 364.585 258.905 364.585 256.833C364.585 254.762 362.906 253.082 360.834 253.082Z" fill="#D9DBE9"/>
<path d="M332.284 281.591H237.503C235.432 281.591 233.752 283.271 233.752 285.343C233.752 287.414 235.432 289.094 237.503 289.094H332.284C334.356 289.094 336.036 287.414 336.036 285.343C336.036 283.271 334.356 281.591 332.284 281.591Z" fill="#D9DBE9"/>
<path d="M379.651 310.099H237.503C235.432 310.099 233.752 311.779 233.752 313.851C233.752 315.922 235.432 317.602 237.503 317.602H379.651C381.723 317.602 383.402 315.922 383.402 313.851C383.402 311.779 381.723 310.099 379.651 310.099Z" fill="#D9DBE9"/>
<path d="M363.324 63.6776H227.74C216.138 63.6776 206.733 73.0825 206.733 84.6841V210.897C206.733 222.499 216.138 231.904 227.74 231.904H363.324C374.926 231.904 384.331 222.499 384.331 210.897V84.6841C384.331 73.0825 374.926 63.6776 363.324 63.6776Z" fill="#F1F3F9"/>
<path d="M360.949 147.79C360.949 183.919 331.661 213.206 295.532 213.206C259.404 213.206 230.115 183.919 230.115 147.79C230.115 111.662 259.404 82.3737 295.532 82.3737C331.661 82.3737 360.949 111.662 360.949 147.79ZM259.427 147.79C259.427 167.73 275.592 183.895 295.532 183.895C315.472 183.895 331.636 167.73 331.636 147.79C331.636 127.85 315.472 111.685 295.532 111.685C275.592 111.685 259.427 127.85 259.427 147.79Z" fill="white"/>
<g filter="url(#filter5_d)">
<path d="M302.435 97.3966C309.521 98.3673 316.324 100.822 322.396 104.6C328.471 108.377 333.679 113.394 337.682 119.322C341.686 125.248 344.394 131.953 345.631 138.999C346.866 146.043 346.604 153.27 344.857 160.207" stroke="#FFC226" stroke-opacity="0.01" stroke-width="29.1045" stroke-linecap="round"/>
</g>
<path d="M302.435 97.3036C309.521 98.2743 316.324 100.729 322.396 104.507C328.471 108.284 333.679 113.301 337.682 119.229C341.686 125.155 344.394 131.86 345.631 138.906C346.866 145.95 346.604 153.177 344.857 160.114" stroke="#FFC226" stroke-width="29.1045" stroke-linecap="round"/>
<g filter="url(#filter6_d)">
<path d="M254.335 117.958C261.997 107.377 273.435 100.15 286.281 97.7743C299.127 95.3984 312.394 98.0559 323.334 105.196" stroke="#FF8139" stroke-opacity="0.01" stroke-width="29.1045" stroke-linecap="round"/>
</g>
<path d="M254.335 118.335C261.997 107.755 273.435 100.528 286.281 98.1521C299.127 95.7762 312.394 98.4337 323.334 105.574" stroke="#FF8139" stroke-width="29.1045" stroke-linecap="round"/>
<g filter="url(#filter7_d)">
<path d="M305.54 197.661C295.883 199.598 285.872 198.69 276.722 195.049C267.571 191.406 259.675 185.186 253.991 177.142C248.308 169.098 245.082 159.578 244.705 149.737C244.328 139.896 246.816 130.157 251.867 121.702" stroke="#FF3951" stroke-opacity="0.01" stroke-width="29.1045" stroke-linecap="round"/>
</g>
<path d="M305.31 197.646C295.653 199.583 285.642 198.675 276.492 195.034C267.341 191.391 259.445 185.171 253.761 177.127C248.079 169.084 244.852 159.563 244.475 149.722C244.099 139.881 246.586 130.142 251.637 121.687" stroke="#FF3951" stroke-width="29.1045" stroke-linecap="round"/>
<g filter="url(#filter8_d)">
<path d="M496.228 144.331H372.707C347.846 144.331 327.693 164.484 327.693 189.344V312.866C327.693 337.726 347.846 357.88 372.707 357.88H496.228C521.089 357.88 541.242 337.726 541.242 312.866V189.344C541.242 164.484 521.089 144.331 496.228 144.331Z" fill="white" fill-opacity="0.01"/>
</g>
<path d="M496.228 144.715H372.707C347.846 144.715 327.693 164.869 327.693 189.729V313.25C327.693 338.111 347.846 358.264 372.707 358.264H496.228C521.089 358.264 541.242 338.111 541.242 313.25V189.729C541.242 164.869 521.089 144.715 496.228 144.715Z" fill="white"/>
<g filter="url(#filter9_d)">
<path d="M369.493 238.863H369.493C364.34 238.863 360.163 243.04 360.163 248.193V316.861C360.163 322.014 364.34 326.191 369.493 326.191H369.493C374.646 326.191 378.823 322.014 378.823 316.861V248.193C378.823 243.04 374.646 238.863 369.493 238.863Z" fill="#FF3951" fill-opacity="0.01"/>
<path d="M401.588 208.858H401.588C396.435 208.858 392.258 213.035 392.258 218.188V316.861C392.258 322.014 396.435 326.191 401.588 326.191C406.741 326.191 410.918 322.014 410.918 316.861V218.188C410.918 213.035 406.741 208.858 401.588 208.858Z" fill="#FF3951" fill-opacity="0.01"/>
<path d="M433.683 238.863H433.683C428.53 238.863 424.353 243.04 424.353 248.193V316.861C424.353 322.014 428.53 326.191 433.683 326.191H433.683C438.836 326.191 443.013 322.014 443.013 316.861V248.193C443.013 243.04 438.836 238.863 433.683 238.863Z" fill="#FF3951" fill-opacity="0.01"/>
<path d="M465.778 201.352H465.778C460.625 201.352 456.448 205.529 456.448 210.682V316.862C456.448 322.015 460.625 326.192 465.778 326.192C470.931 326.192 475.108 322.015 475.108 316.862V210.682C475.108 205.529 470.931 201.352 465.778 201.352Z" fill="#FF3951" fill-opacity="0.01"/>
<path d="M499.44 176.016H499.44C494.288 176.016 490.11 180.194 490.11 185.346V316.861C490.11 322.014 494.288 326.191 499.44 326.191C504.593 326.191 508.77 322.014 508.77 316.861V185.346C508.77 180.194 504.593 176.016 499.44 176.016Z" fill="#FF3951" fill-opacity="0.01"/>
</g>
<path d="M369.493 238.718H369.493C364.34 238.718 360.163 242.895 360.163 248.048V316.716C360.163 321.869 364.34 326.046 369.493 326.046H369.493C374.646 326.046 378.823 321.869 378.823 316.716V248.048C378.823 242.895 374.646 238.718 369.493 238.718Z" fill="#FF3951"/>
<path d="M401.588 208.713H401.588C396.435 208.713 392.258 212.89 392.258 218.043V316.716C392.258 321.869 396.435 326.046 401.588 326.046C406.741 326.046 410.918 321.869 410.918 316.716V218.043C410.918 212.89 406.741 208.713 401.588 208.713Z" fill="#FF3951"/>
<path d="M433.683 238.718H433.683C428.53 238.718 424.353 242.895 424.353 248.048V316.716C424.353 321.869 428.53 326.046 433.683 326.046H433.683C438.836 326.046 443.013 321.869 443.013 316.716V248.048C443.013 242.895 438.836 238.718 433.683 238.718Z" fill="#FF3951"/>
<path d="M465.778 201.207H465.778C460.625 201.207 456.448 205.384 456.448 210.537V316.717C456.448 321.87 460.625 326.047 465.778 326.047C470.931 326.047 475.108 321.87 475.108 316.717V210.537C475.108 205.384 470.931 201.207 465.778 201.207Z" fill="#FF3951"/>
<path d="M499.44 175.872H499.44C494.288 175.872 490.11 180.049 490.11 185.201V316.716C490.11 321.869 494.288 326.046 499.44 326.046C504.593 326.046 508.77 321.869 508.77 316.716V185.201C508.77 180.049 504.593 175.872 499.44 175.872Z" fill="#FF3951"/>
</g>
<defs>
<filter id="filter0_d" x="92.7281" y="-37.5022" width="405.609" height="551.348" filterUnits="userSpaceOnUse" color-interpolation-filters="sRGB">
<feFlood flood-opacity="0" result="BackgroundImageFix"/>
<feColorMatrix in="SourceAlpha" type="matrix" values="0 0 0 0 0 0 0 0 0 0 0 0 0 0 0 0 0 0 127 0"/>
<feOffset dy="12.0037"/>
<feGaussianBlur stdDeviation="48.0149"/>
<feColorMatrix type="matrix" values="0 0 0 0 0 0 0 0 0 0 0 0 0 0 0 0 0 0 0.14 0"/>
<feBlend mode="normal" in2="BackgroundImageFix" result="effect1_dropShadow"/>
<feBlend mode="normal" in="SourceGraphic" in2="effect1_dropShadow" result="shape"/>
</filter>
<filter id="filter1_d" x="185.804" y="326.778" width="219.61" height="80.1828" filterUnits="userSpaceOnUse" color-interpolation-filters="sRGB">
<feFlood flood-opacity="0" result="BackgroundImageFix"/>
<feColorMatrix in="SourceAlpha" type="matrix" values="0 0 0 0 0 0 0 0 0 0 0 0 0 0 0 0 0 0 127 0"/>
<feOffset dy="9.00279"/>
<feGaussianBlur stdDeviation="10.5032"/>
<feColorMatrix type="matrix" values="0 0 0 0 1 0 0 0 0 0.223529 0 0 0 0 0.317647 0 0 0 0.37 0"/>
<feBlend mode="normal" in2="BackgroundImageFix" result="effect1_dropShadow"/>
<feBlend mode="normal" in="SourceGraphic" in2="effect1_dropShadow" result="shape"/>
</filter>
<filter id="filter2_d" x="199.867" y="242.579" width="34.5107" height="34.5107" filterUnits="userSpaceOnUse" color-interpolation-filters="sRGB">
<feFlood flood-opacity="0" result="BackgroundImageFix"/>
<feColorMatrix in="SourceAlpha" type="matrix" values="0 0 0 0 0 0 0 0 0 0 0 0 0 0 0 0 0 0 127 0"/>
<feOffset dy="3.00093"/>
<feGaussianBlur stdDeviation="3.75116"/>
<feColorMatrix type="matrix" values="0 0 0 0 1 0 0 0 0 0.223529 0 0 0 0 0.317647 0 0 0 0.35 0"/>
<feBlend mode="normal" in2="BackgroundImageFix" result="effect1_dropShadow"/>
<feBlend mode="normal" in="SourceGraphic" in2="effect1_dropShadow" result="shape"/>
</filter>
<filter id="filter3_d" x="198.366" y="269.588" width="37.5116" height="37.5116" filterUnits="userSpaceOnUse" color-interpolation-filters="sRGB">
<feFlood flood-opacity="0" result="BackgroundImageFix"/>
<feColorMatrix in="SourceAlpha" type="matrix" values="0 0 0 0 0 0 0 0 0 0 0 0 0 0 0 0 0 0 127 0"/>
<feOffset dy="3.00093"/>
<feGaussianBlur stdDeviation="4.50139"/>
<feColorMatrix type="matrix" values="0 0 0 0 1 0 0 0 0 0.504861 0 0 0 0 0.225 0 0 0 0.32 0"/>
<feBlend mode="normal" in2="BackgroundImageFix" result="effect1_dropShadow"/>
<feBlend mode="normal" in="SourceGraphic" in2="effect1_dropShadow" result="shape"/>
</filter>
<filter id="filter4_d" x="192.364" y="293.596" width="49.5153" height="49.5153" filterUnits="userSpaceOnUse" color-interpolation-filters="sRGB">
<feFlood flood-opacity="0" result="BackgroundImageFix"/>
<feColorMatrix in="SourceAlpha" type="matrix" values="0 0 0 0 0 0 0 0 0 0 0 0 0 0 0 0 0 0 127 0"/>
<feOffset dy="4.50139"/>
<feGaussianBlur stdDeviation="7.50232"/>
<feColorMatrix type="matrix" values="0 0 0 0 1 0 0 0 0 0.760784 0 0 0 0 0.14902 0 0 0 0.33 0"/>
<feBlend mode="normal" in2="BackgroundImageFix" result="effect1_dropShadow"/>
<feBlend mode="normal" in="SourceGraphic" in2="effect1_dropShadow" result="shape"/>
</filter>
<filter id="filter5_d" x="278.926" y="78.3649" width="90.9779" height="109.83" filterUnits="userSpaceOnUse" color-interpolation-filters="sRGB">
<feFlood flood-opacity="0" result="BackgroundImageFix"/>
<feColorMatrix in="SourceAlpha" type="matrix" values="0 0 0 0 0 0 0 0 0 0 0 0 0 0 0 0 0 0 127 0"/>
<feOffset dy="4.47761"/>
<feGaussianBlur stdDeviation="4.47761"/>
<feColorMatrix type="matrix" values="0 0 0 0 1 0 0 0 0 0.760784 0 0 0 0 0.14902 0 0 0 0.21 0"/>
<feBlend mode="normal" in2="BackgroundImageFix" result="effect1_dropShadow"/>
<feBlend mode="normal" in="SourceGraphic" in2="effect1_dropShadow" result="shape"/>
</filter>
<filter id="filter6_d" x="230.827" y="77.8958" width="116.017" height="68.0479" filterUnits="userSpaceOnUse" color-interpolation-filters="sRGB">
<feFlood flood-opacity="0" result="BackgroundImageFix"/>
<feColorMatrix in="SourceAlpha" type="matrix" values="0 0 0 0 0 0 0 0 0 0 0 0 0 0 0 0 0 0 127 0"/>
<feOffset dy="4.47761"/>
<feGaussianBlur stdDeviation="4.47761"/>
<feColorMatrix type="matrix" values="0 0 0 0 1 0 0 0 0 0.505882 0 0 0 0 0.223529 0 0 0 0.16 0"/>
<feBlend mode="normal" in2="BackgroundImageFix" result="effect1_dropShadow"/>
<feBlend mode="normal" in="SourceGraphic" in2="effect1_dropShadow" result="shape"/>
</filter>
<filter id="filter7_d" x="212.205" y="95.9532" width="125.8" height="141.88" filterUnits="userSpaceOnUse" color-interpolation-filters="sRGB">
<feFlood flood-opacity="0" result="BackgroundImageFix"/>
<feColorMatrix in="SourceAlpha" type="matrix" values="0 0 0 0 0 0 0 0 0 0 0 0 0 0 0 0 0 0 127 0"/>
<feOffset dy="6.71642"/>
<feGaussianBlur stdDeviation="8.95523"/>
<feColorMatrix type="matrix" values="0 0 0 0 1 0 0 0 0 0.223529 0 0 0 0 0.317647 0 0 0 0.34 0"/>
<feBlend mode="normal" in2="BackgroundImageFix" result="effect1_dropShadow"/>
<feBlend mode="normal" in="SourceGraphic" in2="effect1_dropShadow" result="shape"/>
</filter>
<filter id="filter8_d" x="201.654" y="31.7958" width="465.627" height="465.627" filterUnits="userSpaceOnUse" color-interpolation-filters="sRGB">
<feFlood flood-opacity="0" result="BackgroundImageFix"/>
<feColorMatrix in="SourceAlpha" type="matrix" values="0 0 0 0 0 0 0 0 0 0 0 0 0 0 0 0 0 0 127 0"/>
<feOffset dy="13.5042"/>
<feGaussianBlur stdDeviation="63.0195"/>
<feColorMatrix type="matrix" values="0 0 0 0 0.416667 0 0 0 0 0.0329861 0 0 0 0 0.0329861 0 0 0 0.33 0"/>
<feBlend mode="normal" in2="BackgroundImageFix" result="effect1_dropShadow"/>
<feBlend mode="normal" in="SourceGraphic" in2="effect1_dropShadow" result="shape"/>
</filter>
<filter id="filter9_d" x="349.66" y="167.014" width="169.614" height="171.182" filterUnits="userSpaceOnUse" color-interpolation-filters="sRGB">
<feFlood flood-opacity="0" result="BackgroundImageFix"/>
<feColorMatrix in="SourceAlpha" type="matrix" values="0 0 0 0 0 0 0 0 0 0 0 0 0 0 0 0 0 0 127 0"/>
<feOffset dy="1.50046"/>
<feGaussianBlur stdDeviation="5.25163"/>
<feColorMatrix type="matrix" values="0 0 0 0 1 0 0 0 0 0.223529 0 0 0 0 0.317647 0 0 0 0.32 0"/>
<feBlend mode="normal" in2="BackgroundImageFix" result="effect1_dropShadow"/>
<feBlend mode="normal" in="SourceGraphic" in2="effect1_dropShadow" result="shape"/>
</filter>
<clipPath id="clip0">
<rect width="730" height="450" fill="white" transform="translate(0 0.82019)"/>
</clipPath>
</defs>
</svg>
